<?xml version="1.0" encoding="utf-8"?>
<!-- Generator: Adobe Illustrator 22.0.1, SVG Export Plug-In . SVG Version: 6.00 Build 0)  -->
<svg version="1.1" xmlns="http://www.w3.org/2000/svg" xmlns:xlink="http://www.w3.org/1999/xlink" x="0px" y="0px"
	 viewBox="0 0 24 24" style="enable-background:new 0 0 24 24;" xml:space="preserve">
<style type="text/css">
	.st0{fill:none;}
</style>
<g id="Capa_2">
	<rect class="st0" width="24" height="24"/>
</g>
<g id="Capa_2_1_">
	<g>
		<path class="st0" d="M10.1,8h-2V4.3H4.3v7.5h3.9V10h2v5.7h-2v-1.9H4.3v5.8l15.3-0.1v-6.6H14c-0.5,0-1-0.4-1-1V9h2v2h4.7V4.3h-9.5
			V8H10.1z"/>
		<path d="M20.6,2.4H3.3c-0.5,0-1,0.4-1,1v17.3c0,0.3,0.1,0.5,0.3,0.7s0.4,0.3,0.7,0.3l0,0l17.3-0.2c0.5,0,1-0.4,1-1V3.3
			C21.6,2.8,21.2,2.4,20.6,2.4z M19.7,11H15V9h-2v3c0,0.5,0.4,1,1,1h5.6v6.6H4.3v-5.8h3.9v1.9h2V10h-2v1.9H4.3V4.3h3.9V8h2V4.3h9.5
			V11z"/>
	</g>
</g>
</svg>
