<?xml version="1.0" encoding="utf-8"?>
<!-- Generator: Adobe Illustrator 22.0.1, SVG Export Plug-In . SVG Version: 6.00 Build 0)  -->
<svg version="1.1" xmlns="http://www.w3.org/2000/svg" xmlns:xlink="http://www.w3.org/1999/xlink" x="0px" y="0px"
	 viewBox="0 0 24 24" style="enable-background:new 0 0 24 24;" xml:space="preserve">
<style type="text/css">
	.st0{fill:none;}
</style>
<g id="Capa_2">
	<rect class="st0" width="24" height="24"/>
</g>
<g id="Capa_2_1_">
	<g>
		<path d="M19.3,4.2h-0.9V2.3h-1.9v1.9h-9V2.3h-2v1.9H4.7C3.7,4.2,2.9,5,2.9,6v13.8c0,1,0.8,1.9,1.9,1.9h14.5c1,0,1.9-0.8,1.9-1.9V6
			C21.1,5,20.3,4.2,19.3,4.2z M19.3,19.8H4.7V9.9h14.5L19.3,19.8L19.3,19.8z M19.3,8.1H4.7V6h14.5L19.3,8.1L19.3,8.1z"/>
		<rect x="12.4" y="12" width="1.9" height="1.9"/>
		<rect x="15.4" y="14.9" width="1.9" height="1.9"/>
	</g>
</g>
</svg>
