<?xml version="1.0" encoding="utf-8"?>
<!-- Generator: Adobe Illustrator 22.0.1, SVG Export Plug-In . SVG Version: 6.00 Build 0)  -->
<svg version="1.1" xmlns="http://www.w3.org/2000/svg" xmlns:xlink="http://www.w3.org/1999/xlink" x="0px" y="0px"
	 viewBox="0 0 24 24" style="enable-background:new 0 0 24 24;" xml:space="preserve">
<style type="text/css">
	.st0{fill:none;}
</style>
<g id="Capa_2">
	<rect class="st0" width="24" height="24"/>
</g>
<g id="Capa_2_1_">
	<g>
		<path class="st0" d="M4.3,17.8h15.3V10H4.3V17.8z M12,12.9h5.7v2H12V12.9z M6.1,13c0-0.5,0.4-1,1-1H9c0.5,0,1,0.4,1,1v1.9
			c0,0.5-0.4,1-1,1H7.1c-0.5,0-1-0.4-1-1V13z"/>
		<rect x="4.3" y="6.2" class="st0" width="15.3" height="1.8"/>
		<path d="M20.7,4.3H3.3c-0.5,0-1,0.4-1,1v13.5c0,0.5,0.4,1,1,1h17.3c0.5,0,1-0.4,1-1V5.3C21.6,4.7,21.2,4.3,20.7,4.3z M19.7,17.8
			H4.3V10h15.3v7.8H19.7z M19.7,8.1H4.3V6.2h15.3v1.9H19.7z"/>
		<path d="M7.1,15.9H9c0.5,0,1-0.4,1-1V13c0-0.5-0.4-1-1-1H7.1c-0.5,0-1,0.4-1,1v1.9C6.1,15.4,6.6,15.9,7.1,15.9z"/>
		<rect x="12" y="13.8" width="5.7" height="2"/>
	</g>
</g>
</svg>
