<?xml version="1.0" encoding="utf-8"?>
<!-- Generator: Adobe Illustrator 22.0.1, SVG Export Plug-In . SVG Version: 6.00 Build 0)  -->
<svg version="1.1" xmlns="http://www.w3.org/2000/svg" xmlns:xlink="http://www.w3.org/1999/xlink" x="0px" y="0px"
	 viewBox="0 0 24 24" style="enable-background:new 0 0 24 24;" xml:space="preserve">
<style type="text/css">
	.st0{fill:none;}
</style>
<g id="Capa_2">
	<rect class="st0" width="24" height="24"/>
</g>
<g id="Capa_1">
	<g>
		<g>
			<path class="st0" d="M10.1,6.7H14c0-0.7-0.9-1.3-2-1.3S10.1,5.9,10.1,6.7z"/>
			<path class="st0" d="M4.4,14.6c0,2,1.8,3.7,4,3.7h7.3c2.2,0,4-1.7,4-3.7v-2.4H4.4V14.6z"/>
			<path d="M20.6,10.2H6V6c0-0.9,0.7-1.6,1.6-1.6h1.7C8.6,5,8.2,5.8,8.2,6.7c0,1.1,0.9,2,2,2H14c1.1,0,2-0.9,2-2
				c0-1.7-1.4-3-3.3-3.2l0,0c0-0.5-0.4-1-1-1H7.6C5.6,2.4,4,4,4,6v4.2H3.4c-0.5,0-1,0.4-1,1v3.4c0,2.4,1.6,4.5,3.9,5.3v1.7h1h1v-1.3
				h0.1h7.3h0.1v1.4h1h1V20c2.2-0.8,3.9-2.9,3.9-5.3v-3.4C21.6,10.6,21.1,10.2,20.6,10.2z M14,6.7h-3.9c0-0.7,0.9-1.3,2-1.3
				S14,5.9,14,6.7z M19.6,14.6c0,2-1.8,3.7-4,3.7H8.3c-2.2,0-4-1.7-4-3.7v-2.4h15.3V14.6z"/>
		</g>
	</g>
</g>
</svg>
