<?xml version="1.0" encoding="utf-8"?>
<!-- Generator: Adobe Illustrator 25.2.0, SVG Export Plug-In . SVG Version: 6.00 Build 0)  -->
<svg version="1.1" id="Capa_1" xmlns="http://www.w3.org/2000/svg" xmlns:xlink="http://www.w3.org/1999/xlink" x="0px" y="0px"
	 viewBox="0 0 24 24" style="enable-background:new 0 0 24 24;" xml:space="preserve">
<style type="text/css">
	.st0{fill:none;}
</style>
<g>
	<rect class="st0" width="24" height="24"/>
</g>
<g>
	<path d="M21.6,12c0-1.3-1.1-2.4-2.4-2.4V6c0-1.3-1.1-2.4-2.4-2.4H7.2C5.9,3.6,4.8,4.7,4.8,6v3.6c-1.3,0-2.4,1.1-2.4,2.4v6H4
		l0.8,2.4H6L6.8,18h10.4l0.8,2.4h1.2L20,18h1.6V12z M16.8,9.6h-3.6V6h3.6V9.6z M7.2,6h3.6v3.6H7.2V6z M4.8,12h14.5v3.6H4.8V12z"/>
</g>
</svg>
