<?xml version="1.0" encoding="utf-8"?>
<!-- Generator: Adobe Illustrator 22.0.1, SVG Export Plug-In . SVG Version: 6.00 Build 0)  -->
<svg version="1.1" xmlns="http://www.w3.org/2000/svg" xmlns:xlink="http://www.w3.org/1999/xlink" x="0px" y="0px"
	 viewBox="0 0 24 24" style="enable-background:new 0 0 24 24;" xml:space="preserve">
<style type="text/css">
	.st0{fill:none;}
</style>
<g id="Capa_2">
	<rect class="st0" width="24" height="24"/>
</g>
<g id="Capa_2_1_">
	<g>
		<g>
			<g>
				<path d="M17.8,4.3v15.4h-6H6.2V4.3H17.8 M17.8,2.4H6.2c-1.1,0-2,0.9-2,2v15.4c0,1.1,0.9,2,2,2h5.7h6c1.1,0,2-0.9,2-2V4.3
					C19.8,3.2,18.9,2.4,17.8,2.4L17.8,2.4z"/>
			</g>
		</g>
		<g>
			<g>
				<rect x="8.1" y="15.8" width="7.8" height="2"/>
			</g>
		</g>
		<path d="M12.2,10.1c-0.4-0.3-0.8-0.5-1.4-0.7c-0.3-0.1-0.5-0.2-0.7-0.3C9.9,9.1,9.8,9,9.8,8.8S9.9,8.5,10,8.4
			c0.2-0.1,0.4-0.2,0.6-0.2c0.2,0,0.3,0,0.5,0.1s0.3,0.1,0.4,0.2c0.2,0.1,0.2,0.1,0.2,0.2c0,0,0.1,0.1,0.2,0.1c0.1,0,0.1,0,0.1-0.1
			L12.4,8c0-0.1,0-0.1,0-0.2c-0.1-0.1-0.3-0.2-0.5-0.4c-0.2-0.1-0.4-0.2-0.6-0.2V6.4c0-0.1-0.1-0.2-0.2-0.2H9.9
			c-0.1,0-0.2,0.1-0.2,0.2v0.8C9.5,7.2,9.2,7.3,9,7.5C8.8,7.6,8.6,7.8,8.5,8.1C8.3,8.3,8.3,8.6,8.3,8.9c0,0.4,0.1,0.7,0.3,1
			s0.4,0.5,0.7,0.6s0.6,0.3,0.9,0.4c0.2,0.1,0.4,0.1,0.6,0.2c0.1,0.1,0.3,0.1,0.3,0.2c0.1,0.1,0.1,0.1,0.1,0.2
			c0,0.2-0.1,0.3-0.2,0.4C10.8,12,10.6,12,10.4,12c-0.2,0-0.4,0-0.6-0.1c-0.2-0.1-0.4-0.1-0.5-0.2c-0.2-0.1-0.3-0.2-0.4-0.2
			c0,0-0.1-0.1-0.2,0c-0.1,0-0.1,0-0.1,0.1l-0.4,0.8c0,0.1,0,0.2,0,0.2c0.4,0.3,0.9,0.5,1.5,0.6v0.6c0,0.1,0.1,0.2,0.2,0.2h1.2
			c0.1,0,0.2-0.1,0.2-0.2v-0.6c0.4-0.1,0.8-0.3,1-0.6c0.3-0.3,0.4-0.7,0.4-1.2C12.8,10.9,12.6,10.5,12.2,10.1z"/>
		<g>
			<g>
				<rect x="13.9" y="7.2" width="2" height="2"/>
			</g>
		</g>
		<g>
			<g>
				<rect x="13.9" y="11.1" width="2" height="2"/>
			</g>
		</g>
	</g>
</g>
</svg>
