<?xml version="1.0" encoding="utf-8"?>
<!-- Generator: Adobe Illustrator 22.0.1, SVG Export Plug-In . SVG Version: 6.00 Build 0)  -->
<svg version="1.1" xmlns="http://www.w3.org/2000/svg" xmlns:xlink="http://www.w3.org/1999/xlink" x="0px" y="0px"
	 viewBox="0 0 24 24" style="enable-background:new 0 0 24 24;" xml:space="preserve">
<style type="text/css">
	.st0{fill:none;}
</style>
<g id="Capa_2">
	<rect class="st0" width="24" height="24"/>
</g>
<g id="Capa_2_1_">
	<g>
		<path d="M19.6,19.7V3.4c0-0.5-0.4-1-1-1H5.2c-0.5,0-1,0.4-1,1v16.3H2.4v2h19.3v-2C21.7,19.7,19.6,19.7,19.6,19.7z M17.7,4.3V11
			H6.2V4.3H17.7z M6.2,13h11.5v6.6h-1.9v-4.3c0-0.3-0.2-0.5-0.5-0.5h-1.8c-0.3,0-0.5,0.2-0.5,0.5v4.3H6.2V13z"/>
		<rect x="8.1" y="14.9" width="2.9" height="2.9"/>
		<rect x="8.1" y="6.2" width="2.9" height="2.9"/>
		<rect x="12.9" y="6.2" width="2.9" height="2.9"/>
	</g>
</g>
</svg>
