<?xml version="1.0" encoding="utf-8"?>
<!-- Generator: Adobe Illustrator 22.0.1, SVG Export Plug-In . SVG Version: 6.00 Build 0)  -->
<svg version="1.1" xmlns="http://www.w3.org/2000/svg" xmlns:xlink="http://www.w3.org/1999/xlink" x="0px" y="0px"
	 viewBox="0 0 24 24" style="enable-background:new 0 0 24 24;" xml:space="preserve">
<style type="text/css">
	.st0{fill:none;}
</style>
<g id="Capa_2">
	<rect class="st0" width="24" height="24"/>
</g>
<g id="Capa_2_1_">
	<g>
		<path class="st0" d="M4.3,19.7h15.3V4.3H4.3V19.7z M7.7,13c0.3-0.1,0.7,0,1,0.2l0.5,0.5l4.4-4.4L13,8.8c-0.3-0.2-0.3-0.6-0.2-0.9
			c0.1-0.3,0.4-0.5,0.8-0.5H16c0.5,0,0.9,0.4,0.9,0.8v2.4c0,0.3-0.2,0.7-0.5,0.8c-0.1,0-0.2,0.1-0.3,0.1c-0.2,0-0.4-0.1-0.6-0.2
			L15,10.7l-4.4,4.4l0.5,0.5c0.3,0.2,0.3,0.6,0.2,0.9S10.9,17,10.5,17H8.1l0,0c-0.2,0-0.4-0.1-0.6-0.2c-0.2-0.2-0.3-0.4-0.3-0.6
			v-2.4C7.2,13.5,7.4,13.2,7.7,13z"/>
		<path d="M20.7,2.4H3.3c-0.5,0-1,0.4-1,1v17.3c0,0.5,0.4,1,1,1h17.3c0.5,0,1-0.4,1-1V3.3C21.6,2.8,21.2,2.4,20.7,2.4z M19.7,19.7
			H4.3V4.3h15.3v15.4H19.7z"/>
		<path d="M7.5,16.9c0.2,0.2,0.4,0.2,0.6,0.2l0,0h2.4c0.3,0,0.7-0.2,0.8-0.5s0-0.7-0.2-0.9l-0.5-0.5l4.4-4.4l0.4,0.4
			c0.2,0.2,0.4,0.2,0.6,0.2c0.1,0,0.2,0,0.3-0.1c0.3-0.1,0.5-0.5,0.5-0.8V8.1c0-0.5-0.4-0.9-0.9-0.8h-2.4c-0.3,0-0.7,0.2-0.8,0.5
			s0,0.7,0.2,0.9l0.6,0.6l-4.4,4.4l-0.5-0.5C8.4,13,8,12.9,7.7,13s-0.5,0.5-0.5,0.8v2.4C7.2,16.5,7.3,16.7,7.5,16.9z"/>
</g>
</g>
</svg>
