<?xml version="1.0" encoding="utf-8"?>
<!-- Generator: Adobe Illustrator 22.0.1, SVG Export Plug-In . SVG Version: 6.00 Build 0)  -->
<svg version="1.1" xmlns="http://www.w3.org/2000/svg" xmlns:xlink="http://www.w3.org/1999/xlink" x="0px" y="0px"
	 viewBox="0 0 24 24" style="enable-background:new 0 0 24 24;" xml:space="preserve">
<style type="text/css">
	.st0{fill:none;}
</style>
<g id="Capa_2">
	<rect class="st0" width="24" height="24"/>
</g>
<g id="Capa_2_1_">
	<g>
		<path class="st0" d="M4.3,8v11.7h15.3V8L12,4.5L4.3,8z M12.7,8.8c0.1-0.3,0.4-0.5,0.8-0.5h2.4l0,0c0.5,0,0.9,0.4,0.9,0.8v2.4
			c0,0.3-0.2,0.7-0.5,0.8c-0.1,0-0.2,0.1-0.3,0.1c-0.2,0-0.4-0.1-0.6-0.2L15,11.8L10.6,16l0.5,0.5c0.2,0.2,0.3,0.6,0.2,0.9
			s-0.4,0.5-0.8,0.5H8.1l0,0c-0.2,0-0.4-0.1-0.6-0.2c-0.2-0.2-0.3-0.4-0.3-0.6v-2.4c0-0.3,0.2-0.7,0.5-0.8c0.3-0.1,0.7-0.1,0.9,0.2
			l0.5,0.5l4.3-4.3l-0.6-0.6C12.6,9.4,12.6,9.1,12.7,8.8z"/>
		<path d="M21.1,6.4l-8.6-4c-0.3-0.1-0.6-0.1-0.8,0l-8.8,4C2.6,6.6,2.4,7,2.4,7.3v13.3c0,0.5,0.4,1,1,1h17.3c0.5,0,1-0.4,1-1V7.3
			C21.6,7,21.4,6.6,21.1,6.4z M19.7,19.7H4.3V8l7.8-3.5L19.7,8V19.7z"/>
		<path d="M13.5,10.3l-4.3,4.3l-0.5-0.5c-0.2-0.2-0.6-0.3-0.9-0.2c-0.3,0.1-0.5,0.5-0.5,0.8v2.4c0,0.2,0.1,0.4,0.3,0.6
			c0,0.2,0.2,0.3,0.5,0.3l0,0h2.4c0.3,0,0.7-0.2,0.8-0.5s0-0.7-0.2-0.9L10.6,16l4.3-4.3l0.4,0.4c0.2,0.2,0.4,0.2,0.6,0.2
			c0.1,0,0.2,0,0.3-0.1c0.3-0.1,0.5-0.5,0.5-0.8V9c0-0.5-0.4-0.8-0.9-0.8l0,0h-2.4c-0.3,0-0.7,0.2-0.8,0.5s0,0.7,0.2,0.9L13.5,10.3z
			"/>
	</g>
</g>
</svg>
