<?xml version="1.0" encoding="utf-8"?>
<!-- Generator: Adobe Illustrator 22.0.1, SVG Export Plug-In . SVG Version: 6.00 Build 0)  -->
<svg version="1.1" xmlns="http://www.w3.org/2000/svg" xmlns:xlink="http://www.w3.org/1999/xlink" x="0px" y="0px"
	 viewBox="0 0 24 24" style="enable-background:new 0 0 24 24;" xml:space="preserve">
<style type="text/css">
	.st0{fill:none;}
</style>
<g id="Capa_2">
	<rect class="st0" width="24" height="24"/>
</g>
<g id="Capa_2_1_">
	<path d="M18.6,10.2H12V3.3c0-0.5-0.4-1-1-1H5.4c-0.5,0-1,0.4-1,1v8.1l0,0c0,1.2,0.3,2.4,0.9,3.4c0.1,0.1,0.2,0.3,0.3,0.4
		c0.1,0.2,0.2,0.4,0.4,0.5c0.1,0.1,0.2,0.3,0.3,0.4v4.4c0,0.5,0.4,1,1,1h9.5c0.5,0,1-0.4,1-1v-4.4c1.2-1.4,1.9-3.1,1.9-5
		C19.6,10.7,19.2,10.2,18.6,10.2z M10,4.3v5.9H6.4V4.3H10z M16,15.2c-0.2,0.2-0.3,0.4-0.3,0.7v3.8H8.2v-3.8c0-0.3-0.1-0.5-0.3-0.7
		c-0.1-0.1-0.1-0.1-0.2-0.2c-0.1-0.1-0.2-0.2-0.3-0.3c-0.1-0.1-0.2-0.3-0.3-0.4c0.1-0.2,0-0.3-0.1-0.4c-0.3-0.5-0.5-1.1-0.6-1.7
		h11.1C17.4,13.3,16.8,14.3,16,15.2z"/>
</g>
</svg>
