<?xml version="1.0" encoding="utf-8"?>
<!-- Generator: Adobe Illustrator 25.2.0, SVG Export Plug-In . SVG Version: 6.00 Build 0)  -->
<svg version="1.1" id="Capa_1" xmlns="http://www.w3.org/2000/svg" xmlns:xlink="http://www.w3.org/1999/xlink" x="0px" y="0px"
	 viewBox="0 0 24 24" style="enable-background:new 0 0 24 24;" xml:space="preserve">
<style type="text/css">
	.st0{fill:none;}
</style>
<g id="Capa_2_1_">
	<rect x="-49.1" class="st0" width="24" height="24"/>
</g>
<g id="Curtains">
	<path d="M-45.5,21.6h2.4c0.2,0,0.5-0.1,0.7-0.3c0.2-0.2,0.3-0.4,0.3-0.7c-0.1-2.7-0.8-4.1-1.4-4.8c0.7-0.4,0.8-1.3,0.4-2
		c-0.1-0.1-0.1-0.2-0.2-0.2c1.5-0.8,4.4-3,4.5-8.9h3.5c0.1,5.9,3,8.1,4.5,8.9c-0.6,0.5-0.6,1.4,0,2c0.1,0.1,0.2,0.1,0.2,0.2
		c-0.6,0.6-1.3,2-1.4,4.8c0,0.2,0.1,0.5,0.3,0.7c0.2,0.2,0.4,0.3,0.7,0.3h2.4c0.8,0,1.4-0.6,1.4-1.4l0,0V3.4c0-0.8-0.6-1.4-1.4-1.4
		l0,0h-16.8c-0.8,0-1.4,0.6-1.4,1.4v16.8C-46.9,21-46.3,21.6-45.5,21.6C-45.5,21.6-45.5,21.6-45.5,21.6z M-44.4,15.4h-1.8v-1.3h1.8
		c0.3,0,0.6,0.3,0.6,0.6S-44,15.4-44.4,15.4C-44.4,15.4-44.4,15.4-44.4,15.4z M-45.8,13.3h-0.3V4.8h3.7
		C-42.6,11.5-45.4,13.1-45.8,13.3z M-46.2,20.2v-4.1h0.3c0.2,0.3,0.9,1.4,1,4.7h-0.6C-45.9,20.8-46.2,20.5-46.2,20.2L-46.2,20.2z
		 M-43.1,20.8h-1.1c0-2.6-0.5-4-0.8-4.7h0.5c0.3,0.2,1.4,1.2,1.5,4.6C-43,20.8-43,20.8-43.1,20.8C-43.1,20.8-43.1,20.8-43.1,20.8z
		 M-44.4,13.3L-44.4,13.3c1.1-1,2.7-3.4,2.7-8.5h2C-39.8,11.7-43.9,13.2-44.4,13.3z M-34.6,4.8h2c0.1,5.1,1.7,7.5,2.8,8.5h-0.1
		C-30.3,13.2-34.5,11.6-34.6,4.8L-34.6,4.8z M-29.9,15.4c-0.3,0-0.6-0.3-0.6-0.6s0.3-0.6,0.6-0.6h1.8v1.3H-29.9z M-28.1,13.3h-0.3
		c-0.4-0.2-3.3-1.8-3.4-8.5h3.7V13.3z M-31.3,20.7c0.1-3.4,1.2-4.4,1.5-4.6h0.5c-0.4,0.7-0.8,2.1-0.8,4.7h-1.1
		C-31.2,20.8-31.3,20.8-31.3,20.7C-31.3,20.7-31.3,20.7-31.3,20.7z M-28.1,20.2c0,0.3-0.3,0.6-0.6,0.6l0,0h-0.6
		c0.1-3.3,0.8-4.4,1-4.7h0.3V20.2z M-46.2,3.4c0-0.3,0.3-0.6,0.6-0.6h16.8c0.3,0,0.6,0.3,0.6,0.6l0,0V4h-18.1V3.4z"/>
</g>
<g id="Curtains_1_">
	<path d="M-45,21.6h2.4c0.2,0,0.5-0.1,0.7-0.3c0.2-0.2,0.3-0.4,0.3-0.7c-0.1-2.7-0.8-4.1-1.4-4.8c0.7-0.4,0.8-1.3,0.4-2
		c-0.1-0.1-0.1-0.2-0.2-0.2c1.5-0.8,4.4-3,4.5-8.9h3.5c0.1,5.9,3,8.1,4.5,8.9c-0.6,0.5-0.6,1.4,0,2c0.1,0.1,0.2,0.1,0.2,0.2
		c-0.6,0.6-1.3,2-1.4,4.8c0,0.2,0.1,0.5,0.3,0.7c0.2,0.2,0.4,0.3,0.7,0.3h2.4c0.8,0,1.4-0.6,1.4-1.4l0,0V3.4c0-0.8-0.6-1.4-1.4-1.4
		l0,0H-45c-0.8,0-1.4,0.6-1.4,1.4v16.8C-46.4,21-45.8,21.6-45,21.6C-45,21.6-45,21.6-45,21.6z M-43.8,15.4h-1.8v-1.3h1.8
		c0.3,0,0.6,0.3,0.6,0.6S-43.5,15.4-43.8,15.4C-43.8,15.4-43.8,15.4-43.8,15.4z M-45.3,13.3h-0.3V4.8h3.7
		C-42,11.5-44.9,13.1-45.3,13.3z M-45.6,20.2v-4.1h0.3c0.2,0.3,0.9,1.4,1,4.7H-45C-45.4,20.8-45.6,20.5-45.6,20.2L-45.6,20.2z
		 M-42.6,20.8h-1.1c0-2.6-0.5-4-0.8-4.7h0.5c0.3,0.2,1.4,1.2,1.5,4.6C-42.4,20.8-42.5,20.8-42.6,20.8
		C-42.6,20.8-42.6,20.8-42.6,20.8z M-43.9,13.3L-43.9,13.3c1.1-1,2.7-3.4,2.7-8.5h2C-39.3,11.7-43.4,13.2-43.9,13.3z M-34.1,4.8h2
		c0.1,5.1,1.7,7.5,2.8,8.5h-0.1C-29.8,13.2-33.9,11.6-34.1,4.8L-34.1,4.8z M-29.4,15.4c-0.3,0-0.6-0.3-0.6-0.6s0.3-0.6,0.6-0.6h1.8
		v1.3H-29.4z M-27.6,13.3h-0.3c-0.4-0.2-3.3-1.8-3.4-8.5h3.7V13.3z M-30.8,20.7c0.1-3.4,1.2-4.4,1.5-4.6h0.5
		c-0.4,0.7-0.8,2.1-0.8,4.7h-1.1C-30.7,20.8-30.8,20.8-30.8,20.7C-30.8,20.7-30.8,20.7-30.8,20.7z M-27.6,20.2
		c0,0.3-0.3,0.6-0.6,0.6l0,0h-0.6c0.1-3.3,0.8-4.4,1-4.7h0.3V20.2z M-45.6,3.4c0-0.3,0.3-0.6,0.6-0.6h16.8c0.3,0,0.6,0.3,0.6,0.6
		l0,0V4h-18.1V3.4z"/>
</g>
<path d="M16.1,9.8H3.2V7.6h12.9V9.8z M16.1,12.1H3.2v2.3h12.9V12.1z M19.9,16.1V5.7c0-1.5-1.2-2.6-2.6-2.6h-14v2.3h14
	c0.2,0,0.4,0.2,0.4,0.4v10.5c-0.9,0.4-1.5,1.3-1.5,2.4c0,1.5,1.2,2.6,2.6,2.6s2.6-1.2,2.6-2.6C21.4,17.5,20.8,16.6,19.9,16.1z
	 M3.2,16.6v2.3h11.4c0-0.1,0-0.3,0-0.4c0-0.7,0.2-1.3,0.5-1.9H3.2z"/>
</svg>
